<mxfile host="app.diagrams.net" modified="2023-10-20T04:14:07.319Z" agent="Mozilla/5.0 (X11; Linux x86_64) AppleWebKit/537.36 (KHTML, like Gecko) Chrome/118.0.0.0 Safari/537.36" etag="kDbMyRwyBl-Pw6WhVNcn" version="22.0.5" type="github">
  <diagram id="C5RBs43oDa-KdzZeNtuy" name="Page-1">
    <mxGraphModel dx="1687" dy="901" grid="1" gridSize="10" guides="1" tooltips="1" connect="1" arrows="1" fold="1" page="1" pageScale="1" pageWidth="1169" pageHeight="1654" math="0" shadow="0">
      <root>
        <mxCell id="WIyWlLk6GJQsqaUBKTNV-0" />
        <mxCell id="WIyWlLk6GJQsqaUBKTNV-1" parent="WIyWlLk6GJQsqaUBKTNV-0" />
        <mxCell id="fz9Msz9a4HgZ77eEVPWV-6" value="Task" style="swimlane;fontStyle=1;align=center;verticalAlign=middle;childLayout=stackLayout;horizontal=1;startSize=40;horizontalStack=0;resizeParent=1;resizeParentMax=0;resizeLast=0;collapsible=0;marginBottom=0;html=1;whiteSpace=wrap;" parent="WIyWlLk6GJQsqaUBKTNV-1" vertex="1">
          <mxGeometry x="120" y="520" width="280" height="440" as="geometry" />
        </mxCell>
        <mxCell id="fz9Msz9a4HgZ77eEVPWV-8" value="&lt;font style=&quot;font-size: 16px;&quot;&gt;id: Long&lt;br&gt;name: String&lt;br&gt;content: String&lt;br&gt;status: boolean&lt;br&gt;difficulty: int&lt;br&gt;assigneeUser: User&lt;br&gt;deadline: LocalDate&lt;/font&gt;" style="text;html=1;strokeColor=none;fillColor=none;align=left;verticalAlign=middle;spacingLeft=4;spacingRight=4;overflow=hidden;rotatable=0;points=[[0,0.5],[1,0.5]];portConstraint=eastwest;whiteSpace=wrap;" parent="fz9Msz9a4HgZ77eEVPWV-6" vertex="1">
          <mxGeometry y="40" width="280" height="160" as="geometry" />
        </mxCell>
        <mxCell id="DmNSkDeyAiDAmZ03BFZZ-8" value="&lt;font style=&quot;font-size: 16px;&quot;&gt;getId(): Long&lt;br&gt;getName(): String&lt;br&gt;getContent(): String&lt;br&gt;getStatus(): boolean&lt;br&gt;setDone(): void&lt;br&gt;getDificulty(): int&lt;br&gt;addUser(User): void&lt;br&gt;removeUser(Long): void&lt;br&gt;getRestDays(): long&lt;br&gt;&lt;/font&gt;" style="rounded=0;whiteSpace=wrap;html=1;fontSize=16;align=left;" parent="fz9Msz9a4HgZ77eEVPWV-6" vertex="1">
          <mxGeometry y="200" width="280" height="240" as="geometry" />
        </mxCell>
        <mxCell id="fz9Msz9a4HgZ77eEVPWV-0" value="Project" style="swimlane;fontStyle=1;align=center;verticalAlign=middle;childLayout=stackLayout;horizontal=1;startSize=40;horizontalStack=0;resizeParent=1;resizeParentMax=0;resizeLast=0;collapsible=0;marginBottom=0;html=1;whiteSpace=wrap;" parent="WIyWlLk6GJQsqaUBKTNV-1" vertex="1">
          <mxGeometry x="480" y="40" width="280" height="440" as="geometry" />
        </mxCell>
        <mxCell id="fz9Msz9a4HgZ77eEVPWV-2" value="&lt;font style=&quot;font-size: 16px;&quot;&gt;id: Long&lt;br&gt;name: String&lt;br&gt;userList: List&amp;lt;User&amp;gt;&lt;br&gt;taskList: List&amp;lt;Task&amp;gt;&lt;br&gt;deadline: LocalDate&lt;br&gt;&lt;/font&gt;" style="text;html=1;strokeColor=none;fillColor=none;align=left;verticalAlign=middle;spacingLeft=4;spacingRight=4;overflow=hidden;rotatable=0;points=[[0,0.5],[1,0.5]];portConstraint=eastwest;whiteSpace=wrap;" parent="fz9Msz9a4HgZ77eEVPWV-0" vertex="1">
          <mxGeometry y="40" width="280" height="160" as="geometry" />
        </mxCell>
        <mxCell id="DmNSkDeyAiDAmZ03BFZZ-7" value="&lt;font style=&quot;font-size: 16px;&quot;&gt;getId(): Long&lt;br&gt;getName(): String&lt;br&gt;getProgress(): int&lt;br&gt;addTask(Task): void&lt;br&gt;removeTask(Long): void&lt;br&gt;addUser(User): void&lt;br&gt;removeUser(Long): void&lt;br&gt;getRestDays(): long&lt;br&gt;getUsersByProfession(String): List&amp;lt;User&amp;gt;&lt;br&gt;&lt;/font&gt;" style="rounded=0;whiteSpace=wrap;html=1;fontSize=16;movable=1;resizable=1;rotatable=1;deletable=1;editable=1;locked=0;connectable=1;align=left;" parent="fz9Msz9a4HgZ77eEVPWV-0" vertex="1">
          <mxGeometry y="200" width="280" height="240" as="geometry" />
        </mxCell>
        <mxCell id="fz9Msz9a4HgZ77eEVPWV-9" value="User" style="swimlane;fontStyle=1;align=center;verticalAlign=middle;childLayout=stackLayout;horizontal=1;startSize=40;horizontalStack=0;resizeParent=1;resizeParentMax=0;resizeLast=0;collapsible=0;marginBottom=0;html=1;whiteSpace=wrap;" parent="WIyWlLk6GJQsqaUBKTNV-1" vertex="1">
          <mxGeometry x="840" y="520" width="280" height="451" as="geometry" />
        </mxCell>
        <mxCell id="fz9Msz9a4HgZ77eEVPWV-11" value="&lt;font style=&quot;font-size: 16px;&quot;&gt;id: Long&lt;br style=&quot;border-color: var(--border-color);&quot;&gt;name: String&lt;br&gt;profession: String&lt;br&gt;taskList: List&amp;lt;Task&amp;gt;&lt;br&gt;&lt;/font&gt;" style="text;html=1;strokeColor=none;fillColor=none;align=left;verticalAlign=middle;spacingLeft=4;spacingRight=4;overflow=hidden;rotatable=0;points=[[0,0.5],[1,0.5]];portConstraint=eastwest;whiteSpace=wrap;" parent="fz9Msz9a4HgZ77eEVPWV-9" vertex="1">
          <mxGeometry y="40" width="280" height="171" as="geometry" />
        </mxCell>
        <mxCell id="DmNSkDeyAiDAmZ03BFZZ-9" value="&lt;font style=&quot;font-size: 16px;&quot;&gt;getId(): Long&lt;br&gt;getName(): String&lt;br&gt;getProfession(): String&lt;br&gt;&lt;/font&gt;" style="rounded=0;whiteSpace=wrap;html=1;fontSize=16;align=left;" parent="fz9Msz9a4HgZ77eEVPWV-9" vertex="1">
          <mxGeometry y="211" width="280" height="240" as="geometry" />
        </mxCell>
        <mxCell id="DmNSkDeyAiDAmZ03BFZZ-0" value="&lt;font style=&quot;font-size: 12px;&quot;&gt;Calendar&lt;/font&gt;" style="swimlane;fontStyle=1;align=center;verticalAlign=middle;childLayout=stackLayout;horizontal=1;startSize=40;horizontalStack=0;resizeParent=1;resizeParentMax=0;resizeLast=0;collapsible=0;marginBottom=0;html=1;whiteSpace=wrap;fontSize=16;" parent="WIyWlLk6GJQsqaUBKTNV-1" vertex="1">
          <mxGeometry x="40" y="1080" width="440" height="440" as="geometry" />
        </mxCell>
        <mxCell id="DmNSkDeyAiDAmZ03BFZZ-10" value="" style="rounded=0;whiteSpace=wrap;html=1;fontSize=16;align=left;" parent="DmNSkDeyAiDAmZ03BFZZ-0" vertex="1">
          <mxGeometry y="40" width="440" height="160" as="geometry" />
        </mxCell>
        <mxCell id="DmNSkDeyAiDAmZ03BFZZ-11" value="&lt;font style=&quot;font-size: 16px;&quot;&gt;getTaskListExpireToday(): List&amp;lt;Task&amp;gt;&lt;br style=&quot;border-color: var(--border-color);&quot;&gt;&lt;span style=&quot;&quot;&gt;getTaskListExpireNextSevenDays(): List&amp;lt;Task&amp;gt;&lt;/span&gt;&lt;/font&gt;" style="rounded=0;whiteSpace=wrap;html=1;fontSize=16;align=left;" parent="DmNSkDeyAiDAmZ03BFZZ-0" vertex="1">
          <mxGeometry y="200" width="440" height="240" as="geometry" />
        </mxCell>
        <mxCell id="L4G8kK5r1EoX4hUiPVCJ-1" value="" style="endArrow=diamondThin;endFill=0;endSize=24;html=1;rounded=0;exitX=0;exitY=0.5;exitDx=0;exitDy=0;entryX=1;entryY=0.5;entryDx=0;entryDy=0;" edge="1" parent="WIyWlLk6GJQsqaUBKTNV-1" source="fz9Msz9a4HgZ77eEVPWV-11" target="fz9Msz9a4HgZ77eEVPWV-8">
          <mxGeometry width="160" relative="1" as="geometry">
            <mxPoint x="770" y="280" as="sourcePoint" />
            <mxPoint x="180" y="350" as="targetPoint" />
          </mxGeometry>
        </mxCell>
        <mxCell id="L4G8kK5r1EoX4hUiPVCJ-2" value="" style="endArrow=diamondThin;endFill=0;endSize=24;html=1;rounded=0;exitX=0.5;exitY=0;exitDx=0;exitDy=0;entryX=1;entryY=0;entryDx=0;entryDy=0;" edge="1" parent="WIyWlLk6GJQsqaUBKTNV-1" source="fz9Msz9a4HgZ77eEVPWV-9" target="DmNSkDeyAiDAmZ03BFZZ-7">
          <mxGeometry width="160" relative="1" as="geometry">
            <mxPoint x="810" y="410" as="sourcePoint" />
            <mxPoint x="1030" y="130" as="targetPoint" />
          </mxGeometry>
        </mxCell>
        <mxCell id="L4G8kK5r1EoX4hUiPVCJ-3" value="" style="endArrow=open;endSize=12;dashed=1;html=1;rounded=0;exitX=0.5;exitY=0;exitDx=0;exitDy=0;entryX=0.5;entryY=1;entryDx=0;entryDy=0;" edge="1" parent="WIyWlLk6GJQsqaUBKTNV-1" source="DmNSkDeyAiDAmZ03BFZZ-0" target="fz9Msz9a4HgZ77eEVPWV-6">
          <mxGeometry width="160" relative="1" as="geometry">
            <mxPoint x="540" y="1150" as="sourcePoint" />
            <mxPoint x="700" y="1150" as="targetPoint" />
          </mxGeometry>
        </mxCell>
        <mxCell id="L4G8kK5r1EoX4hUiPVCJ-4" value="" style="endArrow=diamondThin;endFill=1;endSize=24;html=1;rounded=0;exitX=0.5;exitY=0;exitDx=0;exitDy=0;entryX=0;entryY=0.75;entryDx=0;entryDy=0;" edge="1" parent="WIyWlLk6GJQsqaUBKTNV-1" source="fz9Msz9a4HgZ77eEVPWV-6" target="DmNSkDeyAiDAmZ03BFZZ-7">
          <mxGeometry width="160" relative="1" as="geometry">
            <mxPoint x="610" y="310" as="sourcePoint" />
            <mxPoint x="770" y="310" as="targetPoint" />
          </mxGeometry>
        </mxCell>
        <mxCell id="L4G8kK5r1EoX4hUiPVCJ-11" value="&lt;font style=&quot;font-size: 12px;&quot;&gt;Professions&lt;/font&gt;" style="swimlane;fontStyle=1;align=center;verticalAlign=middle;childLayout=stackLayout;horizontal=1;startSize=29;horizontalStack=0;resizeParent=1;resizeParentMax=0;resizeLast=0;collapsible=0;marginBottom=0;html=1;whiteSpace=wrap;" vertex="1" parent="WIyWlLk6GJQsqaUBKTNV-1">
          <mxGeometry x="710" y="1280" width="260" height="310" as="geometry" />
        </mxCell>
        <mxCell id="L4G8kK5r1EoX4hUiPVCJ-13" value="&lt;font style=&quot;font-size: 16px;&quot;&gt;professionList: List&amp;lt;String&amp;gt;&lt;/font&gt;" style="text;html=1;strokeColor=none;fillColor=none;align=left;verticalAlign=middle;spacingLeft=4;spacingRight=4;overflow=hidden;rotatable=0;points=[[0,0.5],[1,0.5]];portConstraint=eastwest;whiteSpace=wrap;" vertex="1" parent="L4G8kK5r1EoX4hUiPVCJ-11">
          <mxGeometry y="29" width="260" height="151" as="geometry" />
        </mxCell>
        <mxCell id="L4G8kK5r1EoX4hUiPVCJ-14" value="&lt;font style=&quot;font-size: 16px;&quot;&gt;addProfession(String): void&lt;br style=&quot;border-color: var(--border-color);&quot;&gt;removeProfession(String): void&lt;/font&gt;" style="rounded=0;whiteSpace=wrap;html=1;align=left;" vertex="1" parent="L4G8kK5r1EoX4hUiPVCJ-11">
          <mxGeometry y="180" width="260" height="130" as="geometry" />
        </mxCell>
        <mxCell id="L4G8kK5r1EoX4hUiPVCJ-17" value="ProfessionValidator" style="swimlane;fontStyle=1;align=center;verticalAlign=middle;childLayout=stackLayout;horizontal=1;startSize=29;horizontalStack=0;resizeParent=1;resizeParentMax=0;resizeLast=0;collapsible=0;marginBottom=0;html=1;whiteSpace=wrap;" vertex="1" parent="WIyWlLk6GJQsqaUBKTNV-1">
          <mxGeometry x="550" y="990" width="220" height="170" as="geometry" />
        </mxCell>
        <mxCell id="L4G8kK5r1EoX4hUiPVCJ-19" value="professions: Professions" style="text;html=1;strokeColor=none;fillColor=none;align=left;verticalAlign=middle;spacingLeft=4;spacingRight=4;overflow=hidden;rotatable=0;points=[[0,0.5],[1,0.5]];portConstraint=eastwest;whiteSpace=wrap;" vertex="1" parent="L4G8kK5r1EoX4hUiPVCJ-17">
          <mxGeometry y="29" width="220" height="81" as="geometry" />
        </mxCell>
        <mxCell id="L4G8kK5r1EoX4hUiPVCJ-20" value="validate(String): boolean" style="rounded=0;whiteSpace=wrap;html=1;align=left;" vertex="1" parent="L4G8kK5r1EoX4hUiPVCJ-17">
          <mxGeometry y="110" width="220" height="60" as="geometry" />
        </mxCell>
        <mxCell id="L4G8kK5r1EoX4hUiPVCJ-22" value="" style="endArrow=diamondThin;endFill=0;endSize=24;html=1;rounded=0;exitX=0.5;exitY=0;exitDx=0;exitDy=0;entryX=0.5;entryY=1;entryDx=0;entryDy=0;" edge="1" parent="WIyWlLk6GJQsqaUBKTNV-1" source="L4G8kK5r1EoX4hUiPVCJ-11" target="L4G8kK5r1EoX4hUiPVCJ-17">
          <mxGeometry width="160" relative="1" as="geometry">
            <mxPoint x="500" y="1170" as="sourcePoint" />
            <mxPoint x="660" y="1170" as="targetPoint" />
          </mxGeometry>
        </mxCell>
        <mxCell id="L4G8kK5r1EoX4hUiPVCJ-23" value="" style="endArrow=open;startArrow=none;endFill=0;startFill=0;endSize=8;html=1;verticalAlign=bottom;labelBackgroundColor=none;strokeWidth=1;rounded=0;exitX=0.5;exitY=0;exitDx=0;exitDy=0;entryX=0;entryY=0.5;entryDx=0;entryDy=0;" edge="1" parent="WIyWlLk6GJQsqaUBKTNV-1" source="L4G8kK5r1EoX4hUiPVCJ-17" target="DmNSkDeyAiDAmZ03BFZZ-9">
          <mxGeometry width="160" relative="1" as="geometry">
            <mxPoint x="600" y="980" as="sourcePoint" />
            <mxPoint x="760" y="980" as="targetPoint" />
          </mxGeometry>
        </mxCell>
        <mxCell id="L4G8kK5r1EoX4hUiPVCJ-24" value="" style="endArrow=open;startArrow=none;endFill=0;startFill=0;endSize=8;html=1;verticalAlign=bottom;labelBackgroundColor=none;strokeWidth=1;rounded=0;exitX=0.5;exitY=0;exitDx=0;exitDy=0;entryX=0.5;entryY=1;entryDx=0;entryDy=0;" edge="1" parent="WIyWlLk6GJQsqaUBKTNV-1" source="L4G8kK5r1EoX4hUiPVCJ-17" target="fz9Msz9a4HgZ77eEVPWV-0">
          <mxGeometry width="160" relative="1" as="geometry">
            <mxPoint x="560" y="760" as="sourcePoint" />
            <mxPoint x="720" y="760" as="targetPoint" />
          </mxGeometry>
        </mxCell>
      </root>
    </mxGraphModel>
  </diagram>
</mxfile>
